<svg width="11" height="8" viewBox="0 0 11 8" xmlns="http://www.w3.org/2000/svg">
<path d="M9.27623 0.290763L3.92041 5.59023L1.77808 3.47044C1.68749 3.36577 1.57601 3.28076 1.45063 3.22074C1.32526 3.16072 1.18871 3.127 1.04954 3.12168C0.910367 3.11636 0.771589 3.13956 0.641912 3.18983C0.512235 3.2401 0.39446 3.31635 0.295978 3.4138C0.197497 3.51124 0.120436 3.62778 0.069632 3.75609C0.0188279 3.8844 -0.0046225 4.02172 0.000753029 4.15942C0.00612855 4.29713 0.040214 4.43225 0.10087 4.5563C0.161525 4.68035 0.247441 4.79066 0.353226 4.8803L3.21304 7.71001C3.40126 7.89474 3.65531 7.99888 3.92041 7.99998C4.0534 8.00074 4.18524 7.97552 4.30836 7.92576C4.43148 7.876 4.54346 7.80268 4.63789 7.71001L10.7011 1.71062C10.7958 1.61767 10.871 1.50708 10.9223 1.38523C10.9736 1.26338 11 1.13269 11 1.00069C11 0.868693 10.9736 0.738 10.9223 0.616153C10.871 0.494306 10.7958 0.383717 10.7011 0.290763C10.5118 0.104531 10.2556 0 9.98866 0C9.72169 0 9.46557 0.104531 9.27623 0.290763Z" fill="currentColor"/>
</svg>
