<svg width="12" height="12" viewBox="0 0 12 12" xmlns="http://www.w3.org/2000/svg">
<path fill-rule="evenodd" clip-rule="evenodd" d="M10.7088 11.5863C10.4496 11.5863 10.2011 11.4843 10.0179 11.3026L5.84292 7.16348L1.66959 11.3011C1.57913 11.3915 1.47151 11.4633 1.35293 11.5122C1.23435 11.5612 1.10717 11.5864 0.978709 11.5864C0.850253 11.5864 0.723068 11.5612 0.60449 11.5122C0.485913 11.4633 0.378291 11.3915 0.287832 11.3011C0.196628 11.2114 0.124237 11.1047 0.0748356 10.9871C0.0254343 10.8696 0 10.7435 0 10.6161C0 10.4887 0.0254343 10.3626 0.0748356 10.2451C0.124237 10.1275 0.196628 10.0208 0.287832 9.93114L4.47202 5.79244L0.287832 1.65374C0.104599 1.47207 0.00166064 1.22569 0.00166064 0.968778C0.00166064 0.711868 0.104599 0.465481 0.287832 0.283818C0.471064 0.102155 0.71958 9.81092e-05 0.978709 9.81092e-05C1.23784 9.81092e-05 1.48635 0.102155 1.66959 0.283818L5.84448 4.42295L10.0179 0.285367C10.1083 0.194944 10.216 0.123172 10.3345 0.0741939C10.4531 0.0252157 10.5803 0 10.7088 0C10.8372 2.98023e-08 10.9644 0.0252157 11.083 0.074194C11.2016 0.123172 11.3092 0.194944 11.3997 0.285367C11.4909 0.375052 11.5633 0.481751 11.6127 0.599313C11.6621 0.716874 11.6875 0.84297 11.6875 0.970326C11.6875 1.09768 11.6621 1.22378 11.6127 1.34134C11.5633 1.4589 11.4909 1.5656 11.3997 1.65529L7.2154 5.79399L11.3997 9.93269C11.5829 10.1144 11.6858 10.3607 11.6858 10.6176C11.6858 10.8746 11.5829 11.1209 11.3997 11.3026C11.2164 11.4843 10.9679 11.5863 10.7088 11.5863Z" fill="currentColor"/>
</svg>
