<svg width="24" height="24" viewBox="0 0 24 24" xmlns="http://www.w3.org/2000/svg">
<path d="M23.9389 7.0544C23.8826 5.77691 23.6759 4.90333 23.3799 4.14247C23.0746 3.33464 22.6048 2.61605 21.9941 2.01487C21.3928 1.40431 20.6647 0.929941 19.8708 0.634051C19.1051 0.33816 18.2361 0.131507 16.9583 0.0751468C15.6712 0.01409 15.2625 0 12.0023 0C8.74222 0 8.33353 0.01409 7.05578 0.0704501C5.77804 0.12681 4.90429 0.333464 4.14328 0.629354C3.33529 0.934638 2.61656 1.40431 2.01527 2.01487C1.40458 2.61605 0.930123 3.34403 0.634175 4.13777C0.338227 4.90333 0.131533 5.77221 0.0751615 7.04971C0.0140928 8.3366 0 8.74521 0 12C0 15.2548 0.0140928 15.6681 0.0704639 16.9456C0.126835 18.2231 0.333529 19.0967 0.629477 19.8575C0.934821 20.6654 1.40928 21.384 2.01527 21.9851C2.61656 22.5957 3.34469 23.0701 4.13858 23.366C4.90429 23.6618 5.77334 23.8685 7.05109 23.9249C8.32883 23.9812 8.73752 23.9953 11.9977 23.9953C15.2578 23.9953 15.6665 23.9812 16.9442 23.9249C18.222 23.8685 19.0957 23.6618 19.8567 23.366C21.468 22.7413 22.7457 21.4685 23.3705 19.8528C23.6665 19.0873 23.8732 18.2184 23.9295 16.9409C23.9859 15.6587 24 15.2548 24 11.9953C24 8.73581 23.9953 8.3366 23.9389 7.0544ZM21.778 16.8564C21.7264 18.0305 21.5291 18.6599 21.3647 19.0826C20.9607 20.1299 20.1292 20.9566 19.0863 21.3605C18.6635 21.5249 18.0247 21.7221 16.8597 21.7738C15.5913 21.8301 15.2155 21.8442 12.0117 21.8442C8.80799 21.8442 8.42278 21.8301 7.16383 21.7738C5.98943 21.7221 5.35995 21.5249 4.93717 21.3605C4.41574 21.1679 3.94128 20.8626 3.56078 20.4634C3.16148 20.0736 2.85614 19.6039 2.66354 19.0873C2.49912 18.6646 2.30182 18.0258 2.25015 16.8611C2.19378 15.593 2.17968 15.2172 2.17968 12.0141C2.17968 8.81096 2.19378 8.42583 2.25015 7.16712C2.30182 5.99296 2.49912 5.3636 2.66354 4.9409C2.85144 4.41487 3.15678 3.94521 3.56078 3.56008C3.95068 3.16086 4.42043 2.85558 4.93717 2.66301C5.35995 2.49863 5.99883 2.30137 7.16383 2.24971C8.43218 2.19335 8.80799 2.17926 12.0117 2.17926C15.2202 2.17926 15.6007 2.19335 16.8597 2.24971C18.0341 2.30137 18.6635 2.49863 19.0863 2.66301C19.6077 2.85558 20.0822 3.16086 20.4627 3.56008C20.862 3.9499 21.1674 4.41957 21.36 4.9409C21.5244 5.3636 21.7217 6.00235 21.7733 7.16712C21.8297 8.43523 21.8438 8.81096 21.8438 12.0141C21.8438 15.2172 21.8344 15.5883 21.778 16.8564Z" fill="currentColor"/>
<path d="M12.0039 5.83813C8.59812 5.83813 5.83594 8.59978 5.83594 12.0049C5.83594 15.41 8.59812 18.1716 12.0039 18.1716C15.4096 18.1716 18.1718 15.41 18.1718 12.0049C18.1718 8.59978 15.4096 5.83813 12.0039 5.83813ZM12.0039 16.0017C9.79601 16.0017 8.00153 14.2123 8.00153 12.0002C8.00153 9.78804 9.79131 7.9986 12.0039 7.9986C14.2117 7.9986 16.0062 9.78804 16.0062 12.0002C16.0062 14.2123 14.2164 16.0017 12.0039 16.0017Z" fill="currentColor"/>
<path d="M19.8593 5.5937C19.8593 6.38744 19.2157 7.03088 18.4218 7.03088C17.6279 7.03088 16.9844 6.38744 16.9844 5.5937C16.9844 4.79996 17.6279 4.15652 18.4218 4.15652C19.211 4.15182 19.8593 4.79996 19.8593 5.5937Z" fill="currentColor"/>
</svg>
