<svg width="29" height="29" viewBox="0 0 29 29" xmlns="http://www.w3.org/2000/svg">
<path d="M14.5014 28.9998C22.0766 28.9998 28.2176 22.8589 28.2176 15.2836C28.2176 7.70834 22.0766 1.56738 14.5014 1.56738C6.92612 1.56738 0.785156 7.70834 0.785156 15.2836C0.785156 22.8589 6.92612 28.9998 14.5014 28.9998Z" fill="currentColor"/>
<path d="M6.63442 14.1858L20.6148 8.79546C21.2637 8.56105 21.8304 8.95376 21.6202 9.93492L21.6214 9.93371L19.241 21.1483C19.0645 21.9433 18.5921 22.1367 17.9311 21.7621L14.3061 19.0905L12.5577 20.7749C12.3643 20.9682 12.2012 21.1313 11.8266 21.1313L12.084 17.4423L18.8023 11.3728C19.0947 11.1155 18.7371 10.9705 18.3516 11.2266L10.0492 16.4539L6.47009 15.3374C5.69313 15.0909 5.67621 14.5604 6.63442 14.1858Z" fill="var(--color2)"/>
</svg>
