<svg width="29" height="30" viewBox="0 0 29 30" xmlns="http://www.w3.org/2000/svg">
<path d="M13.464 0.276405C10.0022 0.533691 6.84454 1.95712 4.36516 4.37962C1.10387 7.56061 -0.459948 12.0648 0.118129 16.589C0.839889 22.246 4.82962 26.9573 10.3097 28.6247C14.5467 29.9145 19.2615 29.1493 22.8536 26.5931C27.2677 23.4489 29.5633 18.233 28.8816 12.8935C28.1599 7.2365 24.1701 2.52515 18.6901 0.857805C17.0595 0.35994 15.1581 0.149431 13.464 0.276405ZM14.57 9.26138C15.3119 9.33489 15.6828 9.45184 15.8498 9.66903C15.8933 9.72917 15.9634 9.87619 16.0035 9.99648C16.0904 10.2504 16.0938 10.5411 16.0403 12.713C16.0069 14.0696 16.0269 14.4873 16.1372 14.788C16.2675 15.1322 16.5549 15.2892 16.8088 15.1589C17.0394 15.0386 17.5774 14.4472 17.9282 13.9226C18.7402 12.7197 19.2348 11.7875 19.8295 10.3473C19.9498 10.0633 20.1102 9.87619 20.2773 9.83275C20.3441 9.8127 21.2898 9.796 22.4526 9.79266L24.5076 9.78597L24.6814 9.85948C24.9053 9.95973 24.9921 10.09 24.9921 10.3273C24.9921 10.7784 24.521 11.7039 23.7123 12.8367C23.6021 12.9937 23.1844 13.5484 22.7868 14.073C21.9079 15.2291 21.7175 15.4997 21.5838 15.7804C21.4167 16.1346 21.4568 16.4253 21.7208 16.7695C21.7977 16.8664 22.1853 17.2573 22.5829 17.6382C23.6956 18.7041 24.2002 19.2655 24.6112 19.8803C24.9053 20.3247 25.0189 20.6521 24.9721 20.9328C24.9487 21.0865 24.795 21.2703 24.6212 21.3605C24.4141 21.4641 24.0966 21.4842 22.349 21.5075L20.695 21.5309L20.4277 21.4407C19.746 21.2135 19.2916 20.8359 18.259 19.6397C17.6877 18.9781 17.2633 18.654 16.9692 18.6507C16.6986 18.6507 16.3544 19.0115 16.2074 19.4593C16.1071 19.76 16.0704 19.9906 16.0403 20.5118C16.0035 21.1266 15.93 21.2703 15.5524 21.4273C15.4154 21.4875 13.7113 21.5075 13.2602 21.4608C12.3546 21.3605 11.5159 21.0765 10.6839 20.5853C9.47763 19.8769 8.73916 19.2421 7.94723 18.233C6.57054 16.4754 5.63158 14.9785 4.49213 12.7197C4.05106 11.8409 3.53313 10.7049 3.44959 10.4342C3.36605 10.1535 3.48634 9.92297 3.76035 9.83609C3.85391 9.80602 4.37518 9.78932 5.57811 9.77261L7.26556 9.7559L7.46271 9.82941C7.77347 9.9497 7.90379 10.1034 8.1143 10.6146C8.29474 11.0457 9.26711 12.997 9.57119 13.5417C9.88195 14.093 10.2128 14.5541 10.4968 14.8281C10.8476 15.1723 11.0047 15.2558 11.252 15.2358C11.4625 15.2157 11.5193 15.1689 11.6496 14.8849C11.967 14.1999 12.0172 11.8844 11.7331 10.9755C11.5694 10.4576 11.3255 10.2605 10.6505 10.1168C10.5335 10.09 10.5335 10.0499 10.6405 9.8929C10.9011 9.51866 11.3656 9.33823 12.2511 9.26472C12.7356 9.22462 14.1724 9.22128 14.57 9.26138Z" fill="currentColor"/>
</svg>
