<svg width="200" height="200" viewBox="0 0 200 200" fill="none" xmlns="http://www.w3.org/2000/svg">
<path d="M150 58.3332H147.083C148.985 54.4396 149.982 50.1665 150 45.8332C150.025 40.0276 148.312 34.3473 145.082 29.5235C141.851 24.6997 137.251 20.9531 131.873 18.7661C126.495 16.579 120.585 16.0516 114.905 17.2517C109.225 18.4518 104.034 21.3244 100 25.4999C95.9662 21.3244 90.7751 18.4518 85.0948 17.2517C79.4146 16.0516 73.5051 16.579 68.1271 18.7661C62.7491 20.9531 58.1488 24.6997 54.9182 29.5235C51.6877 34.3473 49.9748 40.0276 50 45.8332C50.0178 50.1665 51.0149 54.4396 52.9167 58.3332H50C43.3696 58.3332 37.0107 60.9672 32.3223 65.6556C27.6339 70.344 25 76.7028 25 83.3332V99.9999C25 102.21 25.878 104.33 27.4408 105.892C29.0036 107.455 31.1232 108.333 33.3333 108.333H41.6667V158.333C41.6667 164.964 44.3006 171.323 48.989 176.011C53.6774 180.699 60.0363 183.333 66.6667 183.333H133.333C139.964 183.333 146.323 180.699 151.011 176.011C155.699 171.323 158.333 164.964 158.333 158.333V108.333H166.667C168.877 108.333 170.996 107.455 172.559 105.892C174.122 104.33 175 102.21 175 99.9999V83.3332C175 76.7028 172.366 70.344 167.678 65.6556C162.989 60.9672 156.63 58.3332 150 58.3332ZM91.6667 166.667H66.6667C64.4565 166.667 62.3369 165.789 60.7741 164.226C59.2113 162.663 58.3333 160.543 58.3333 158.333V108.333H91.6667V166.667ZM91.6667 91.6666H41.6667V83.3332C41.6667 81.1231 42.5446 79.0035 44.1074 77.4407C45.6702 75.8779 47.7899 74.9999 50 74.9999H91.6667V91.6666ZM91.6667 58.3332H79.1667C76.6944 58.3332 74.2777 57.6001 72.222 56.2266C70.1664 54.8531 68.5643 52.9009 67.6182 50.6168C66.6721 48.3327 66.4245 45.8194 66.9068 43.3946C67.3892 40.9698 68.5797 38.7426 70.3278 36.9944C72.076 35.2462 74.3033 34.0557 76.728 33.5734C79.1528 33.0911 81.6661 33.3386 83.9502 34.2847C86.2343 35.2308 88.1865 36.833 89.56 38.8886C90.9336 40.9442 91.6667 43.361 91.6667 45.8332V58.3332ZM108.333 45.8332C108.333 43.361 109.066 40.9442 110.44 38.8886C111.813 36.833 113.766 35.2308 116.05 34.2847C118.334 33.3386 120.847 33.0911 123.272 33.5734C125.697 34.0557 127.924 35.2462 129.672 36.9944C131.42 38.7426 132.611 40.9698 133.093 43.3946C133.575 45.8194 133.328 48.3327 132.382 50.6168C131.436 52.9009 129.834 54.8531 127.778 56.2266C125.722 57.6001 123.306 58.3332 120.833 58.3332H108.333V45.8332ZM141.667 158.333C141.667 160.543 140.789 162.663 139.226 164.226C137.663 165.789 135.543 166.667 133.333 166.667H108.333V108.333H141.667V158.333ZM158.333 91.6666H108.333V74.9999H150C152.21 74.9999 154.33 75.8779 155.893 77.4407C157.455 79.0035 158.333 81.1231 158.333 83.3332V91.6666Z" fill="#F2F2F2"/>
</svg>
