<svg width="31" height="31" viewBox="0 0 31 31" fill="none" xmlns="http://www.w3.org/2000/svg">
<path d="M9.04167 20.6666C9.55552 20.6666 10.0483 20.4625 10.4117 20.0992C10.775 19.7358 10.9792 19.243 10.9792 18.7291C10.9855 18.6647 10.9855 18.5998 10.9792 18.5354L14.5829 14.9316H14.88H15.1771L17.2567 17.0112C17.2567 17.0112 17.2567 17.0758 17.2567 17.1146C17.2567 17.6284 17.4608 18.1212 17.8241 18.4846C18.1875 18.8479 18.6803 19.0521 19.1942 19.0521C19.708 19.0521 20.2008 18.8479 20.5642 18.4846C20.9275 18.1212 21.1317 17.6284 21.1317 17.1146V17.0112L25.8333 12.2708C26.2165 12.2708 26.5911 12.1572 26.9097 11.9443C27.2284 11.7314 27.4767 11.4288 27.6233 11.0748C27.77 10.7207 27.8084 10.3312 27.7336 9.95533C27.6588 9.57949 27.4743 9.23426 27.2034 8.96329C26.9324 8.69233 26.5872 8.5078 26.2113 8.43304C25.8355 8.35828 25.4459 8.39665 25.0919 8.5433C24.7379 8.68994 24.4353 8.93828 24.2224 9.2569C24.0095 9.57552 23.8958 9.95011 23.8958 10.3333C23.8895 10.3977 23.8895 10.4626 23.8958 10.5271L19.2329 15.19H19.0262L16.7917 12.9166C16.7917 12.4028 16.5875 11.91 16.2242 11.5466C15.8608 11.1833 15.368 10.9791 14.8542 10.9791C14.3403 10.9791 13.8475 11.1833 13.4841 11.5466C13.1208 11.91 12.9167 12.4028 12.9167 12.9166L9.04167 16.7916C8.52781 16.7916 8.035 16.9958 7.67165 17.3591C7.3083 17.7225 7.10417 18.2153 7.10417 18.7291C7.10417 19.243 7.3083 19.7358 7.67165 20.0992C8.035 20.4625 8.52781 20.6666 9.04167 20.6666ZM26.4792 25.8333H4.52083V3.87498C4.52083 3.53241 4.38475 3.20387 4.14251 2.96163C3.90028 2.7194 3.57174 2.58331 3.22917 2.58331C2.8866 2.58331 2.55805 2.7194 2.31582 2.96163C2.07359 3.20387 1.9375 3.53241 1.9375 3.87498V27.125C1.9375 27.4676 2.07359 27.7961 2.31582 28.0383C2.55805 28.2806 2.8866 28.4166 3.22917 28.4166H26.4792C26.8217 28.4166 27.1503 28.2806 27.3925 28.0383C27.6347 27.7961 27.7708 27.4676 27.7708 27.125C27.7708 26.7824 27.6347 26.4539 27.3925 26.2116C27.1503 25.9694 26.8217 25.8333 26.4792 25.8333Z" fill="#F2F2F2"/>
</svg>
