<svg width="28" height="28" viewBox="0 0 28 28" fill="none" xmlns="http://www.w3.org/2000/svg">
<path d="M26.3663 2.44998C26.2496 2.09998 25.8996 1.74998 25.5496 1.63332C20.6496 0.349984 15.6329 1.86665 12.2496 5.83332L10.9663 7.34998L7.81628 6.64998C6.29961 6.06665 4.66628 6.76665 3.96628 8.16665L1.39961 12.7167C1.16628 13.0667 1.16628 13.4167 1.39961 13.7667C1.51628 14.1167 1.86628 14.35 2.21628 14.4667L5.83294 15.2833C5.48294 16.2167 5.36628 17.15 5.13294 18.0833C5.13294 18.4333 5.24961 18.7833 5.48294 19.0166L9.09961 22.6333C9.33294 22.8666 9.56628 22.9833 9.91628 22.9833H10.0329C11.0829 22.8667 12.0163 22.75 12.9496 22.4L13.6496 25.9C13.7663 26.25 13.9996 26.6 14.3496 26.7167C14.4663 26.8333 14.6996 26.8333 14.8163 26.8333C15.0496 26.8333 15.1663 26.8333 15.3996 26.7167L19.9496 24.15C21.2329 23.45 21.9329 21.8167 21.5829 20.3L20.7663 17.0333L22.1663 15.75C26.0163 12.4833 27.6496 7.23332 26.3663 2.44998ZM8.51628 10.2667C7.81628 11.2 7.11628 12.1333 6.64961 13.0667L4.19961 12.4833L5.94961 9.33332C6.18294 8.86665 6.64961 8.74998 7.23294 8.86665L9.21628 9.33332L8.51628 10.2667ZM18.6663 22.05L15.5163 23.8L15.0496 21.4667C16.0996 21 17.0329 20.3 17.8496 19.6L18.6663 18.7833L19.1329 20.7666C19.3663 21.35 19.0163 21.9333 18.6663 22.05ZM19.4829 10.2667C18.5496 10.2667 17.7329 9.44998 17.7329 8.51665C17.7329 7.58332 18.5496 6.76665 19.4829 6.76665C20.4163 6.76665 21.2329 7.58332 21.2329 8.51665C21.2329 9.44998 20.5329 10.2667 19.4829 10.2667Z" fill="#F2F2F2"/>
</svg>
