<svg width="28" height="28" viewBox="0 0 28 28" fill="none" xmlns="http://www.w3.org/2000/svg">
<path d="M22.1673 2.33331H5.83398C3.85065 2.33331 2.33398 3.84998 2.33398 5.83331V22.1666C2.33398 24.15 3.85065 25.6666 5.83398 25.6666H22.1673C24.1507 25.6666 25.6673 24.15 25.6673 22.1666V5.83331C25.6673 3.84998 24.1507 2.33331 22.1673 2.33331ZM9.33398 19.8333C9.33398 20.5333 8.86732 21 8.16732 21C7.46732 21 7.00065 20.5333 7.00065 19.8333V15.1666C7.00065 14.4666 7.46732 14 8.16732 14C8.86732 14 9.33398 14.4666 9.33398 15.1666V19.8333ZM15.1673 19.8333C15.1673 20.5333 14.7007 21 14.0007 21C13.3007 21 12.834 20.5333 12.834 19.8333V8.16665C12.834 7.46665 13.3007 6.99998 14.0007 6.99998C14.7007 6.99998 15.1673 7.46665 15.1673 8.16665V19.8333ZM21.0007 19.8333C21.0007 20.5333 20.534 21 19.834 21C19.134 21 18.6673 20.5333 18.6673 19.8333V12.8333C18.6673 12.1333 19.134 11.6666 19.834 11.6666C20.534 11.6666 21.0007 12.1333 21.0007 12.8333V19.8333Z" fill="#F2F2F2"/>
</svg>
