<svg width="33" height="33" viewBox="0 0 33 33" fill="none" xmlns="http://www.w3.org/2000/svg">
<path d="M9.625 22C10.172 22 10.6966 21.7827 11.0834 21.3959C11.4702 21.0091 11.6875 20.4845 11.6875 19.9375C11.6942 19.8689 11.6942 19.7998 11.6875 19.7313L15.5238 15.895H15.84H16.1562L18.37 18.1088C18.37 18.1088 18.37 18.1775 18.37 18.2188C18.37 18.7658 18.5873 19.2904 18.9741 19.6772C19.3609 20.064 19.8855 20.2812 20.4325 20.2812C20.9795 20.2812 21.5041 20.064 21.8909 19.6772C22.2777 19.2904 22.495 18.7658 22.495 18.2188V18.1088L27.5 13.0625C27.9079 13.0625 28.3067 12.9415 28.6459 12.7149C28.985 12.4883 29.2494 12.1662 29.4055 11.7893C29.5616 11.4124 29.6025 10.9977 29.5229 10.5976C29.4433 10.1975 29.2469 9.83004 28.9584 9.54159C28.67 9.25315 28.3025 9.05671 27.9024 8.97713C27.5023 8.89755 27.0876 8.93839 26.7107 9.0945C26.3338 9.2506 26.0117 9.51496 25.7851 9.85414C25.5585 10.1933 25.4375 10.5921 25.4375 11C25.4308 11.0686 25.4308 11.1377 25.4375 11.2062L20.4738 16.17H20.2537L17.875 13.75C17.875 13.203 17.6577 12.6784 17.2709 12.2916C16.8841 11.9048 16.3595 11.6875 15.8125 11.6875C15.2655 11.6875 14.7409 11.9048 14.3541 12.2916C13.9673 12.6784 13.75 13.203 13.75 13.75L9.625 17.875C9.07799 17.875 8.55339 18.0923 8.16659 18.4791C7.7798 18.8659 7.5625 19.3905 7.5625 19.9375C7.5625 20.4845 7.7798 21.0091 8.16659 21.3959C8.55339 21.7827 9.07799 22 9.625 22ZM28.1875 27.5H4.8125V4.125C4.8125 3.76033 4.66763 3.41059 4.40977 3.15273C4.15191 2.89487 3.80217 2.75 3.4375 2.75C3.07283 2.75 2.72309 2.89487 2.46523 3.15273C2.20737 3.41059 2.0625 3.76033 2.0625 4.125V28.875C2.0625 29.2397 2.20737 29.5894 2.46523 29.8473C2.72309 30.1051 3.07283 30.25 3.4375 30.25H28.1875C28.5522 30.25 28.9019 30.1051 29.1598 29.8473C29.4176 29.5894 29.5625 29.2397 29.5625 28.875C29.5625 28.5103 29.4176 28.1606 29.1598 27.9027C28.9019 27.6449 28.5522 27.5 28.1875 27.5Z" fill="#2EE3BB"/>
</svg>
