<svg width="34" height="34" viewBox="0 0 34 34" fill="none" xmlns="http://www.w3.org/2000/svg">
<path d="M32.0175 2.97495C31.8758 2.54995 31.4508 2.12495 31.0258 1.98329C25.0758 0.424955 18.9841 2.26662 14.8758 7.08329L13.3174 8.92495L9.49245 8.07495C7.65078 7.36662 5.66745 8.21662 4.81745 9.91662L1.70078 15.4416C1.41745 15.8666 1.41745 16.2916 1.70078 16.7166C1.84245 17.1416 2.26745 17.425 2.69245 17.5666L7.08412 18.5583C6.65911 19.6916 6.51745 20.825 6.23412 21.9583C6.23412 22.3833 6.37578 22.8083 6.65911 23.0916L11.0508 27.4833C11.3341 27.7666 11.6174 27.9083 12.0424 27.9083H12.1841C13.4591 27.7666 14.5924 27.625 15.7258 27.2L16.5758 31.45C16.7174 31.875 17.0008 32.3 17.4258 32.4416C17.5674 32.5833 17.8508 32.5833 17.9924 32.5833C18.2758 32.5833 18.4174 32.5833 18.7008 32.4416L24.2258 29.325C25.7841 28.475 26.6341 26.4916 26.2091 24.65L25.2174 20.6833L26.9174 19.125C31.5925 15.1583 33.5758 8.78329 32.0175 2.97495ZM10.3424 12.4666C9.49245 13.6 8.64245 14.7333 8.07578 15.8666L5.10078 15.1583L7.22578 11.3333C7.50911 10.7666 8.07578 10.625 8.78411 10.7666L11.1924 11.3333L10.3424 12.4666ZM22.6674 26.775L18.8424 28.9L18.2758 26.0666C19.5508 25.5 20.6841 24.65 21.6758 23.8L22.6674 22.8083L23.2341 25.2166C23.5174 25.925 23.0924 26.6333 22.6674 26.775ZM23.6591 12.4666C22.5258 12.4666 21.5341 11.475 21.5341 10.3416C21.5341 9.20829 22.5258 8.21662 23.6591 8.21662C24.7924 8.21662 25.7841 9.20829 25.7841 10.3416C25.7841 11.475 24.9341 12.4666 23.6591 12.4666Z" fill="#2EE3BB"/>
</svg>
