<svg width="32" height="32" viewBox="0 0 32 32" fill="none" xmlns="http://www.w3.org/2000/svg">
<path d="M25.3327 2.66663H6.66602C4.39935 2.66663 2.66602 4.39996 2.66602 6.66663V25.3333C2.66602 27.6 4.39935 29.3333 6.66602 29.3333H25.3327C27.5993 29.3333 29.3327 27.6 29.3327 25.3333V6.66663C29.3327 4.39996 27.5993 2.66663 25.3327 2.66663ZM10.666 22.6666C10.666 23.4666 10.1327 24 9.33268 24C8.53268 24 7.99935 23.4666 7.99935 22.6666V17.3333C7.99935 16.5333 8.53268 16 9.33268 16C10.1327 16 10.666 16.5333 10.666 17.3333V22.6666ZM17.3327 22.6666C17.3327 23.4666 16.7993 24 15.9993 24C15.1993 24 14.666 23.4666 14.666 22.6666V9.33329C14.666 8.53329 15.1993 7.99996 15.9993 7.99996C16.7993 7.99996 17.3327 8.53329 17.3327 9.33329V22.6666ZM23.9993 22.6666C23.9993 23.4666 23.466 24 22.666 24C21.866 24 21.3327 23.4666 21.3327 22.6666V14.6666C21.3327 13.8666 21.866 13.3333 22.666 13.3333C23.466 13.3333 23.9993 13.8666 23.9993 14.6666V22.6666Z" fill="#2EE3BB"/>
</svg>
