<svg width="0" height="0" class="hidden">
  <symbol xmlns="http://www.w3.org/2000/svg" viewBox="0 0 24 24" id="ic_arrow">
    <path d="M12.7091 17.7099L17.7091 12.7099C17.8002 12.6148 17.8715 12.5027 17.9191 12.3799C18.0191 12.1365 18.0191 11.8634 17.9191 11.6199C17.8715 11.4972 17.8002 11.385 17.7091 11.2899L12.7091 6.28994C12.6159 6.1967 12.5052 6.12274 12.3834 6.07228C12.2616 6.02182 12.131 5.99585 11.9991 5.99585C11.7328 5.99585 11.4774 6.10164 11.2891 6.28994C11.1008 6.47824 10.995 6.73364 10.995 6.99994C10.995 7.26624 11.1008 7.52164 11.2891 7.70994L14.5891 10.9999L6.99913 10.9999C6.73391 10.9999 6.47956 11.1053 6.29202 11.2928C6.10448 11.4804 5.99913 11.7347 5.99913 11.9999C5.99913 12.2652 6.10448 12.5195 6.29202 12.707C6.47956 12.8946 6.73391 12.9999 6.99913 12.9999L14.5891 12.9999L11.2891 16.2899C11.1954 16.3829 11.121 16.4935 11.0702 16.6154C11.0195 16.7372 10.9933 16.8679 10.9933 16.9999C10.9933 17.132 11.0195 17.2627 11.0702 17.3845C11.121 17.5064 11.1954 17.617 11.2891 17.7099C11.3821 17.8037 11.4927 17.8781 11.6145 17.9288C11.7364 17.9796 11.8671 18.0057 11.9991 18.0057C12.1311 18.0057 12.2618 17.9796 12.3837 17.9288C12.5056 17.8781 12.6162 17.8037 12.7091 17.7099Z" fill="currentColor"></path>
  </symbol>
  <symbol xmlns="http://www.w3.org/2000/svg" viewBox="0 0 11 8" id="ic_check">
    <path d="M9.27623 0.290763L3.92041 5.59023L1.77808 3.47044C1.68749 3.36577 1.57601 3.28076 1.45063 3.22074C1.32526 3.16072 1.18871 3.127 1.04954 3.12168C0.910367 3.11636 0.771589 3.13956 0.641912 3.18983C0.512235 3.2401 0.39446 3.31635 0.295978 3.4138C0.197497 3.51124 0.120436 3.62778 0.069632 3.75609C0.0188279 3.8844 -0.0046225 4.02172 0.000753029 4.15942C0.00612855 4.29713 0.040214 4.43225 0.10087 4.5563C0.161525 4.68035 0.247441 4.79066 0.353226 4.8803L3.21304 7.71001C3.40126 7.89474 3.65531 7.99888 3.92041 7.99998C4.0534 8.00074 4.18524 7.97552 4.30836 7.92576C4.43148 7.876 4.54346 7.80268 4.63789 7.71001L10.7011 1.71062C10.7958 1.61767 10.871 1.50708 10.9223 1.38523C10.9736 1.26338 11 1.13269 11 1.00069C11 0.868693 10.9736 0.738 10.9223 0.616153C10.871 0.494306 10.7958 0.383717 10.7011 0.290763C10.5118 0.104531 10.2556 0 9.98866 0C9.72169 0 9.46557 0.104531 9.27623 0.290763Z" fill="currentColor"></path>
  </symbol>
  <symbol xmlns="http://www.w3.org/2000/svg" viewBox="0 0 12 12" id="ic_close">
    <path fill-rule="evenodd" clip-rule="evenodd" d="M10.7088 11.5863C10.4496 11.5863 10.2011 11.4843 10.0179 11.3026L5.84292 7.16348L1.66959 11.3011C1.57913 11.3915 1.47151 11.4633 1.35293 11.5122C1.23435 11.5612 1.10717 11.5864 0.978709 11.5864C0.850253 11.5864 0.723068 11.5612 0.60449 11.5122C0.485913 11.4633 0.378291 11.3915 0.287832 11.3011C0.196628 11.2114 0.124237 11.1047 0.0748356 10.9871C0.0254343 10.8696 0 10.7435 0 10.6161C0 10.4887 0.0254343 10.3626 0.0748356 10.2451C0.124237 10.1275 0.196628 10.0208 0.287832 9.93114L4.47202 5.79244L0.287832 1.65374C0.104599 1.47207 0.00166064 1.22569 0.00166064 0.968778C0.00166064 0.711868 0.104599 0.465481 0.287832 0.283818C0.471064 0.102155 0.71958 9.81092e-05 0.978709 9.81092e-05C1.23784 9.81092e-05 1.48635 0.102155 1.66959 0.283818L5.84448 4.42295L10.0179 0.285367C10.1083 0.194944 10.216 0.123172 10.3345 0.0741939C10.4531 0.0252157 10.5803 0 10.7088 0C10.8372 2.98023e-08 10.9644 0.0252157 11.083 0.074194C11.2016 0.123172 11.3092 0.194944 11.3997 0.285367C11.4909 0.375052 11.5633 0.481751 11.6127 0.599313C11.6621 0.716874 11.6875 0.84297 11.6875 0.970326C11.6875 1.09768 11.6621 1.22378 11.6127 1.34134C11.5633 1.4589 11.4909 1.5656 11.3997 1.65529L7.2154 5.79399L11.3997 9.93269C11.5829 10.1144 11.6858 10.3607 11.6858 10.6176C11.6858 10.8746 11.5829 11.1209 11.3997 11.3026C11.2164 11.4843 10.9679 11.5863 10.7088 11.5863Z" fill="currentColor"></path>
  </symbol>
  <symbol xmlns="http://www.w3.org/2000/svg" viewBox="0 0 24 24" id="ic_instagram">
    <path d="M23.9389 7.0544C23.8826 5.77691 23.6759 4.90333 23.3799 4.14247C23.0746 3.33464 22.6048 2.61605 21.9941 2.01487C21.3928 1.40431 20.6647 0.929941 19.8708 0.634051C19.1051 0.33816 18.2361 0.131507 16.9583 0.0751468C15.6712 0.01409 15.2625 0 12.0023 0C8.74222 0 8.33353 0.01409 7.05578 0.0704501C5.77804 0.12681 4.90429 0.333464 4.14328 0.629354C3.33529 0.934638 2.61656 1.40431 2.01527 2.01487C1.40458 2.61605 0.930123 3.34403 0.634175 4.13777C0.338227 4.90333 0.131533 5.77221 0.0751615 7.04971C0.0140928 8.3366 0 8.74521 0 12C0 15.2548 0.0140928 15.6681 0.0704639 16.9456C0.126835 18.2231 0.333529 19.0967 0.629477 19.8575C0.934821 20.6654 1.40928 21.384 2.01527 21.9851C2.61656 22.5957 3.34469 23.0701 4.13858 23.366C4.90429 23.6618 5.77334 23.8685 7.05109 23.9249C8.32883 23.9812 8.73752 23.9953 11.9977 23.9953C15.2578 23.9953 15.6665 23.9812 16.9442 23.9249C18.222 23.8685 19.0957 23.6618 19.8567 23.366C21.468 22.7413 22.7457 21.4685 23.3705 19.8528C23.6665 19.0873 23.8732 18.2184 23.9295 16.9409C23.9859 15.6587 24 15.2548 24 11.9953C24 8.73581 23.9953 8.3366 23.9389 7.0544ZM21.778 16.8564C21.7264 18.0305 21.5291 18.6599 21.3647 19.0826C20.9607 20.1299 20.1292 20.9566 19.0863 21.3605C18.6635 21.5249 18.0247 21.7221 16.8597 21.7738C15.5913 21.8301 15.2155 21.8442 12.0117 21.8442C8.80799 21.8442 8.42278 21.8301 7.16383 21.7738C5.98943 21.7221 5.35995 21.5249 4.93717 21.3605C4.41574 21.1679 3.94128 20.8626 3.56078 20.4634C3.16148 20.0736 2.85614 19.6039 2.66354 19.0873C2.49912 18.6646 2.30182 18.0258 2.25015 16.8611C2.19378 15.593 2.17968 15.2172 2.17968 12.0141C2.17968 8.81096 2.19378 8.42583 2.25015 7.16712C2.30182 5.99296 2.49912 5.3636 2.66354 4.9409C2.85144 4.41487 3.15678 3.94521 3.56078 3.56008C3.95068 3.16086 4.42043 2.85558 4.93717 2.66301C5.35995 2.49863 5.99883 2.30137 7.16383 2.24971C8.43218 2.19335 8.80799 2.17926 12.0117 2.17926C15.2202 2.17926 15.6007 2.19335 16.8597 2.24971C18.0341 2.30137 18.6635 2.49863 19.0863 2.66301C19.6077 2.85558 20.0822 3.16086 20.4627 3.56008C20.862 3.9499 21.1674 4.41957 21.36 4.9409C21.5244 5.3636 21.7217 6.00235 21.7733 7.16712C21.8297 8.43523 21.8438 8.81096 21.8438 12.0141C21.8438 15.2172 21.8344 15.5883 21.778 16.8564Z" fill="currentColor"></path>
    <path d="M12.0039 5.83813C8.59812 5.83813 5.83594 8.59978 5.83594 12.0049C5.83594 15.41 8.59812 18.1716 12.0039 18.1716C15.4096 18.1716 18.1718 15.41 18.1718 12.0049C18.1718 8.59978 15.4096 5.83813 12.0039 5.83813ZM12.0039 16.0017C9.79601 16.0017 8.00153 14.2123 8.00153 12.0002C8.00153 9.78804 9.79131 7.9986 12.0039 7.9986C14.2117 7.9986 16.0062 9.78804 16.0062 12.0002C16.0062 14.2123 14.2164 16.0017 12.0039 16.0017Z" fill="currentColor"></path>
    <path d="M19.8593 5.5937C19.8593 6.38744 19.2157 7.03088 18.4218 7.03088C17.6279 7.03088 16.9844 6.38744 16.9844 5.5937C16.9844 4.79996 17.6279 4.15652 18.4218 4.15652C19.211 4.15182 19.8593 4.79996 19.8593 5.5937Z" fill="currentColor"></path>
  </symbol>
  <symbol xmlns="http://www.w3.org/2000/svg" viewBox="0 0 24 17" id="ic_menu">
    <path d="M1 1H23" stroke="currentColor" stroke-width="2" stroke-linecap="round" stroke-linejoin="round" fill="none"></path>
    <path d="M1 8.5H23" stroke="currentColor" stroke-width="2" stroke-linecap="round" stroke-linejoin="round" fill="none"></path>
    <path d="M1 16H23" stroke="currentColor" stroke-width="2" stroke-linecap="round" stroke-linejoin="round" fill="none"></path>
  </symbol>
  <symbol xmlns="http://www.w3.org/2000/svg" viewBox="0 0 29 29" id="ic_telegram">
    <path d="M14.5014 28.9998C22.0766 28.9998 28.2176 22.8589 28.2176 15.2836C28.2176 7.70834 22.0766 1.56738 14.5014 1.56738C6.92612 1.56738 0.785156 7.70834 0.785156 15.2836C0.785156 22.8589 6.92612 28.9998 14.5014 28.9998Z" fill="currentColor"></path>
    <path d="M6.63442 14.1858L20.6148 8.79546C21.2637 8.56105 21.8304 8.95376 21.6202 9.93492L21.6214 9.93371L19.241 21.1483C19.0645 21.9433 18.5921 22.1367 17.9311 21.7621L14.3061 19.0905L12.5577 20.7749C12.3643 20.9682 12.2012 21.1313 11.8266 21.1313L12.084 17.4423L18.8023 11.3728C19.0947 11.1155 18.7371 10.9705 18.3516 11.2266L10.0492 16.4539L6.47009 15.3374C5.69313 15.0909 5.67621 14.5604 6.63442 14.1858Z" fill="var(--color2)"></path>
  </symbol>
  <symbol xmlns="http://www.w3.org/2000/svg" viewBox="0 0 29 30" id="ic_vkontakte">
    <path d="M13.464 0.276405C10.0022 0.533691 6.84454 1.95712 4.36516 4.37962C1.10387 7.56061 -0.459948 12.0648 0.118129 16.589C0.839889 22.246 4.82962 26.9573 10.3097 28.6247C14.5467 29.9145 19.2615 29.1493 22.8536 26.5931C27.2677 23.4489 29.5633 18.233 28.8816 12.8935C28.1599 7.2365 24.1701 2.52515 18.6901 0.857805C17.0595 0.35994 15.1581 0.149431 13.464 0.276405ZM14.57 9.26138C15.3119 9.33489 15.6828 9.45184 15.8498 9.66903C15.8933 9.72917 15.9634 9.87619 16.0035 9.99648C16.0904 10.2504 16.0938 10.5411 16.0403 12.713C16.0069 14.0696 16.0269 14.4873 16.1372 14.788C16.2675 15.1322 16.5549 15.2892 16.8088 15.1589C17.0394 15.0386 17.5774 14.4472 17.9282 13.9226C18.7402 12.7197 19.2348 11.7875 19.8295 10.3473C19.9498 10.0633 20.1102 9.87619 20.2773 9.83275C20.3441 9.8127 21.2898 9.796 22.4526 9.79266L24.5076 9.78597L24.6814 9.85948C24.9053 9.95973 24.9921 10.09 24.9921 10.3273C24.9921 10.7784 24.521 11.7039 23.7123 12.8367C23.6021 12.9937 23.1844 13.5484 22.7868 14.073C21.9079 15.2291 21.7175 15.4997 21.5838 15.7804C21.4167 16.1346 21.4568 16.4253 21.7208 16.7695C21.7977 16.8664 22.1853 17.2573 22.5829 17.6382C23.6956 18.7041 24.2002 19.2655 24.6112 19.8803C24.9053 20.3247 25.0189 20.6521 24.9721 20.9328C24.9487 21.0865 24.795 21.2703 24.6212 21.3605C24.4141 21.4641 24.0966 21.4842 22.349 21.5075L20.695 21.5309L20.4277 21.4407C19.746 21.2135 19.2916 20.8359 18.259 19.6397C17.6877 18.9781 17.2633 18.654 16.9692 18.6507C16.6986 18.6507 16.3544 19.0115 16.2074 19.4593C16.1071 19.76 16.0704 19.9906 16.0403 20.5118C16.0035 21.1266 15.93 21.2703 15.5524 21.4273C15.4154 21.4875 13.7113 21.5075 13.2602 21.4608C12.3546 21.3605 11.5159 21.0765 10.6839 20.5853C9.47763 19.8769 8.73916 19.2421 7.94723 18.233C6.57054 16.4754 5.63158 14.9785 4.49213 12.7197C4.05106 11.8409 3.53313 10.7049 3.44959 10.4342C3.36605 10.1535 3.48634 9.92297 3.76035 9.83609C3.85391 9.80602 4.37518 9.78932 5.57811 9.77261L7.26556 9.7559L7.46271 9.82941C7.77347 9.9497 7.90379 10.1034 8.1143 10.6146C8.29474 11.0457 9.26711 12.997 9.57119 13.5417C9.88195 14.093 10.2128 14.5541 10.4968 14.8281C10.8476 15.1723 11.0047 15.2558 11.252 15.2358C11.4625 15.2157 11.5193 15.1689 11.6496 14.8849C11.967 14.1999 12.0172 11.8844 11.7331 10.9755C11.5694 10.4576 11.3255 10.2605 10.6505 10.1168C10.5335 10.09 10.5335 10.0499 10.6405 9.8929C10.9011 9.51866 11.3656 9.33823 12.2511 9.26472C12.7356 9.22462 14.1724 9.22128 14.57 9.26138Z" fill="currentColor"></path>
  </symbol>
</svg>